M48
;Layer_Color=0
;FILE_FORMAT=2:5
INCH,LZ
;TYPE=PLATED
T1F00S00C0.02800
T2F00S00C0.03937
T3F00S00C0.05906
;TYPE=NON_PLATED
T5F00S00C0.06693
T6F00S00C0.12000
T7F00S00C0.15700
T8F00S00C0.15748
%
T01
X0877234Y-0149953
X0047909Y-0085144
X0053165Y-0045948
X0041499Y-0013617
X0035728Y-0007272
X0091542Y0004542
X0099Y-0021
X0014Y-0031668
X-0003633Y-0038
X-0009241Y-0046
X-0000861Y-0055487
X000108Y-0079999
X-0003Y-0088
X0017Y-008
X0025052Y-0045948
X-0025081Y-0032597
X-0025Y-0025
X-0024461Y-001028
X-0011146Y0051562
X-0011268Y005908
X-0009Y0095
Y0105
X-0055
X-0063599Y005914
X-0064Y0043
X-0049556Y0051858
X0026281Y0023521
T02
X00075Y0051562
X00175
X00275
X00375
X00475
X00575
X00675
T03
X-0068819Y-021637
X-0043819Y-020637
X0024928Y-021637
X0049928Y-020637
X0118681Y-021637
X0143681Y-020637
X0399932Y-021637
X0424932Y-020637
X0681178Y-021637
X0706178Y-020637
X0774932Y-021637
X0799932Y-020637
X0868678Y-021637
X0893678Y-020637
X0962428Y-021637
X0987428Y-020637
X0931178Y-013137
X0906178Y-014137
X0924924Y-0066373
X0949924Y-0056373
X0953053Y000863
X0859303
X0828058Y-0056373
X0803058Y-0066373
X0753058Y-0056373
X0728058Y-0066373
X0678053Y-0056373
X0653053Y-0066373
X0690553Y-014137
X0715553Y-013137
X0765558Y-014137
X0790558Y-013137
X0784306Y000863
X0709303
X0634306
X0559306
X0578058Y-0066373
X0603058Y-0056373
X0528053
X0503053Y-0066373
X0540558Y-014137
X0565558Y-013137
X0615558Y-014137
X0640558Y-013137
X0490553
X0465553Y-014137
X0415558Y-013137
X0390558Y-014137
X0340552Y-013137
X0353052Y-0066373
X0378052Y-0056373
X0428053Y-0066373
X0453053Y-0056373
X0484303Y000863
X0409306
X0334302
X0259306
X0184306
X0203053Y-0066373
X0228053Y-0056373
X0278053Y-0066373
X0303053Y-0056373
X0315552Y-014137
X0265559Y-013137
X0240559Y-014137
X0190559Y-013137
X0165559Y-014137
X0115559Y-013137
X0090558Y-014137
X0078058Y-0056373
X0053058Y-0066373
X012805
X015305Y-0056373
X0109306Y000863
X0034303
X-0059442
X-0050067Y-0066373
X-0025067Y-0056373
X-0031322Y-014137
X-0006322Y-013137
X-0034442Y001863
X-0053194Y009363
X-0078194Y008363
X-0003194Y008363
X0021806Y009363
X0071806Y008363
X0096806Y009363
X0146803Y008363
X0171803Y009363
X0134306Y001863
X0059303
X0209306
X0284306
X0296806Y008363
X0321806Y009363
X0246806
X0221806Y008363
X0371806
X0396806Y009363
X0446806Y008363
X0471806Y009363
X0434306Y001863
X0359302
X0509303
X0584306
X0596806Y008363
X0621806Y009363
X0546803
X0521803Y008363
X0671803
X0696803Y009363
X0746806Y008363
X0771806Y009363
X0734303Y001863
X0659306
X0809306
X0884303
X0846806Y009363
X0821806Y008363
X0934303
X0959303Y009363
X0978053Y001863
T05
X-0073819Y-022637
X-0033819
X0019928
X0003678Y-0151371
X-0036322
X0085558
X0125558
X0160558
X0153681Y-022637
X0113681
X0059928
X0200558Y-0151371
X0235559
X0275558
X0310553
X0350553
X0385558
X0425558
X0460553
X0434932Y-022637
X0394932
X0500553Y-0151371
X0535558
X0575558
X0610558
X0650558
X0685553
X0725553
X0760558
X0800558
X0769932Y-022637
X0716178
X0676178
X0809932
X0863678
X0903678
X0957428
X0941178Y-0151371
X0901178
X0997429Y-022637
X0988052Y-000137
X0948053
X0894302
X0854303
X0819306
X0838058Y-0076373
X0919925
X0959925
X0798058
X0763058
X0723058
X0688053
X0704303Y-000137
X0669306
X0744303
X0779306
X0629306
X0594306
X0554306
X0519303
X0538053Y-0076373
X0573058
X0613058
X0648053
X0498053
X0463053
X0423053
X0388052
X0348052
X0369303Y-000137
X0404306
X0444306
X0479303
X0329303
X0294306
X0254306
X0219306
X0238053Y-0076373
X0273054
X0313053
X0198053
X016305
X012305
X0088059
X0048059
X0029303Y-000137
X0069303
X0104306
X0144306
X0179306
X-0024442
X-0064442
X-0055067Y-0076373
X-0015067
X-0008194Y007363
X-0043194Y007363
X-0083195
X0031806Y007363
X0066806
X0106806
X0141803
X0181803
X0216806
X0256806
X0291806
X0331806
X0366806
X0406806
X0441806
X0481806
X0516803
X0556803
X0591806
X0631806
X0666803
X0706803
X0741806
X0781806
X0816806
X0856806
X0929303
X0969302
T06
X0218082Y-025387
X0611783
X0968178Y-0123871
X0986924Y-0048873
X0892924
X0874178Y-0123871
X0030678
X-0063322
X0902302Y010113
X0996303
T07
X-0063322Y-018387
X0030678
X0218082Y-019387
X0611783
X0874178Y-018387
X0968178
X0986924Y-0108873
X0892924
X0902302Y004113
X0996303
T08
X-0053819Y-022637
X-0016322Y-0151371
X0105559
X0180559
X0133681Y-022637
X0039928
X0255558Y-0151371
X0330553
X0405558
X0480552
X0414932Y-022637
X0555558Y-0151371
X0630558
X0705552
X0780558
X0789932Y-022637
X0696178
X0883678
X0921178Y-0151371
X0977429Y-022637
X0968052Y-000137
X0874302
X0818058Y-0076373
X0939925
X0743058
X0668052
X0724302Y-000137
X0799306
X0649306
X0574306
X0499302
X0518052Y-0076373
X0593058
X0443052
X0368052
X0349303Y-000137
X0424306
X0274306
X0199306
X0218053Y-0076373
X0293054
X014305
X0068059
X0049303Y-000137
X0124306
X-0044442
X-0035067Y-0076373
X-0063195Y007363
X0011806Y007363
X0086806
X0161803
X0236806
X0311806
X0386806
X0461806
X0536802
X0611806
X0686802
X0761806
X0836806
X0949302
M30
