G04*
G04 #@! TF.GenerationSoftware,Altium Limited,Altium Designer,21.7.2 (23)*
G04*
G04 Layer_Color=255*
%FSLAX25Y25*%
%MOIN*%
G70*
G04*
G04 #@! TF.SameCoordinates,8FBBE309-EC49-44CF-9814-742EC28C0B38*
G04*
G04*
G04 #@! TF.FilePolarity,Positive*
G04*
G01*
G75*
%ADD21C,0.08661*%
%ADD22C,0.06693*%
%ADD23C,0.15748*%
%ADD24O,0.19685X0.11811*%
%ADD25C,0.07874*%
%ADD26C,0.12000*%
%ADD27C,0.15700*%
G04:AMPARAMS|DCode=29|XSize=21.65mil|YSize=59.06mil|CornerRadius=0mil|HoleSize=0mil|Usage=FLASHONLY|Rotation=225.000|XOffset=0mil|YOffset=0mil|HoleType=Round|Shape=Round|*
%AMOVALD29*
21,1,0.03740,0.02165,0.00000,0.00000,315.0*
1,1,0.02165,-0.01322,0.01322*
1,1,0.02165,0.01322,-0.01322*
%
%ADD29OVALD29*%

G04:AMPARAMS|DCode=30|XSize=21.65mil|YSize=59.06mil|CornerRadius=0mil|HoleSize=0mil|Usage=FLASHONLY|Rotation=315.000|XOffset=0mil|YOffset=0mil|HoleType=Round|Shape=Round|*
%AMOVALD30*
21,1,0.03740,0.02165,0.00000,0.00000,45.0*
1,1,0.02165,-0.01322,-0.01322*
1,1,0.02165,0.01322,0.01322*
%
%ADD30OVALD30*%

%ADD31R,0.05100X0.02800*%
%ADD32R,0.02800X0.05100*%
%ADD33R,0.02165X0.04134*%
G04:AMPARAMS|DCode=34|XSize=28mil|YSize=51mil|CornerRadius=0mil|HoleSize=0mil|Usage=FLASHONLY|Rotation=225.000|XOffset=0mil|YOffset=0mil|HoleType=Round|Shape=Rectangle|*
%AMROTATEDRECTD34*
4,1,4,-0.00813,0.02793,0.02793,-0.00813,0.00813,-0.02793,-0.02793,0.00813,-0.00813,0.02793,0.0*
%
%ADD34ROTATEDRECTD34*%

%ADD35R,0.01772X0.05433*%
%ADD36R,0.05610X0.06102*%
%ADD37R,0.03937X0.07480*%
%ADD38R,0.07087X0.07480*%
%ADD39R,0.06496X0.05118*%
%ADD40R,0.10000X0.07000*%
D21*
X303053Y-56373D02*
D03*
X278053Y-66373D02*
D03*
X-34442Y18630D02*
D03*
X-59442Y8630D02*
D03*
X78058Y-56373D02*
D03*
X53058Y-66373D02*
D03*
X399932Y-216370D02*
D03*
X424932Y-206370D02*
D03*
X-25067Y-56373D02*
D03*
X-50067Y-66373D02*
D03*
X-31322Y-141370D02*
D03*
X-6322Y-131370D02*
D03*
X-3194Y83630D02*
D03*
X21806Y93630D02*
D03*
X931178Y-131370D02*
D03*
X906178Y-141370D02*
D03*
X949924Y-56373D02*
D03*
X924924Y-66373D02*
D03*
X959303Y93630D02*
D03*
X934303Y83630D02*
D03*
X128050Y-66373D02*
D03*
X153050Y-56373D02*
D03*
X868678Y-216370D02*
D03*
X893678Y-206370D02*
D03*
X484303Y8630D02*
D03*
X509303Y18630D02*
D03*
X671803Y83630D02*
D03*
X696803Y93630D02*
D03*
X953053Y8630D02*
D03*
X978053Y18630D02*
D03*
X596806Y83630D02*
D03*
X621806Y93630D02*
D03*
X371806Y83630D02*
D03*
X396806Y93630D02*
D03*
X559306Y8630D02*
D03*
X584306Y18630D02*
D03*
X334302Y8630D02*
D03*
X359302Y18630D02*
D03*
X521803Y83630D02*
D03*
X546803Y93630D02*
D03*
X90558Y-141370D02*
D03*
X115559Y-131370D02*
D03*
X428053Y-66373D02*
D03*
X453053Y-56373D02*
D03*
X184306Y8630D02*
D03*
X209306Y18630D02*
D03*
X109306Y8630D02*
D03*
X134306Y18630D02*
D03*
X746806Y83630D02*
D03*
X771806Y93630D02*
D03*
X353052Y-66373D02*
D03*
X378052Y-56373D02*
D03*
X446806Y83630D02*
D03*
X471806Y93630D02*
D03*
X774932Y-216370D02*
D03*
X799932Y-206370D02*
D03*
X681178Y-216370D02*
D03*
X706178Y-206370D02*
D03*
X165559Y-141370D02*
D03*
X190559Y-131370D02*
D03*
X465553Y-141370D02*
D03*
X490553Y-131370D02*
D03*
X296806Y83630D02*
D03*
X321806Y93630D02*
D03*
X540558Y-141370D02*
D03*
X565558Y-131370D02*
D03*
X803058Y-66373D02*
D03*
X828058Y-56373D02*
D03*
X690553Y-141370D02*
D03*
X715553Y-131370D02*
D03*
X240559Y-141370D02*
D03*
X265559Y-131370D02*
D03*
X-78194Y83630D02*
D03*
X-53194Y93630D02*
D03*
X784306Y8630D02*
D03*
X809306Y18630D02*
D03*
X-68819Y-216370D02*
D03*
X-43819Y-206370D02*
D03*
X118681Y-216370D02*
D03*
X143681Y-206370D02*
D03*
X821806Y83630D02*
D03*
X846806Y93630D02*
D03*
X390558Y-141370D02*
D03*
X415558Y-131370D02*
D03*
X728058Y-66373D02*
D03*
X753058Y-56373D02*
D03*
X578058Y-66373D02*
D03*
X603058Y-56373D02*
D03*
X221806Y83630D02*
D03*
X246806Y93630D02*
D03*
X146803Y83630D02*
D03*
X171803Y93630D02*
D03*
X503053Y-66373D02*
D03*
X528053Y-56373D02*
D03*
X24928Y-216370D02*
D03*
X49928Y-206370D02*
D03*
X259306Y8630D02*
D03*
X284306Y18630D02*
D03*
X34303Y8630D02*
D03*
X59303Y18630D02*
D03*
X709303Y8630D02*
D03*
X734303Y18630D02*
D03*
X634306Y8630D02*
D03*
X659306Y18630D02*
D03*
X859303Y8630D02*
D03*
X884303Y18630D02*
D03*
X615558Y-141370D02*
D03*
X640558Y-131370D02*
D03*
X203053Y-66373D02*
D03*
X228053Y-56373D02*
D03*
X315552Y-141370D02*
D03*
X340552Y-131370D02*
D03*
X409306Y8630D02*
D03*
X434306Y18630D02*
D03*
X71806Y83630D02*
D03*
X96806Y93630D02*
D03*
X653053Y-66373D02*
D03*
X678053Y-56373D02*
D03*
X765558Y-141370D02*
D03*
X790558Y-131370D02*
D03*
X962428Y-216370D02*
D03*
X987428Y-206370D02*
D03*
D22*
X273054Y-76373D02*
D03*
X313053D02*
D03*
X-64442Y-1370D02*
D03*
X-24442D02*
D03*
X48059Y-76373D02*
D03*
X88059D02*
D03*
X434932Y-226370D02*
D03*
X394932D02*
D03*
X-55067Y-76373D02*
D03*
X-15067D02*
D03*
X3678Y-151371D02*
D03*
X-36322D02*
D03*
X31806Y73630D02*
D03*
X-8194D02*
D03*
X901178Y-151371D02*
D03*
X941178D02*
D03*
X919925Y-76373D02*
D03*
X959925D02*
D03*
X929303Y73630D02*
D03*
X969302D02*
D03*
X163050Y-76373D02*
D03*
X123050D02*
D03*
X903678Y-226370D02*
D03*
X863678D02*
D03*
X519303Y-1370D02*
D03*
X479303D02*
D03*
X706803Y73630D02*
D03*
X666803D02*
D03*
X988052Y-1370D02*
D03*
X948053D02*
D03*
X631806Y73630D02*
D03*
X591806D02*
D03*
X406806D02*
D03*
X366806D02*
D03*
X594306Y-1370D02*
D03*
X554306D02*
D03*
X369303D02*
D03*
X329303D02*
D03*
X556803Y73630D02*
D03*
X516803D02*
D03*
X125558Y-151371D02*
D03*
X85558D02*
D03*
X463053Y-76373D02*
D03*
X423053D02*
D03*
X219306Y-1370D02*
D03*
X179306D02*
D03*
X144306D02*
D03*
X104306D02*
D03*
X781806Y73630D02*
D03*
X741806D02*
D03*
X388052Y-76373D02*
D03*
X348052D02*
D03*
X481806Y73630D02*
D03*
X441806D02*
D03*
X809932Y-226370D02*
D03*
X769932D02*
D03*
X716178D02*
D03*
X676178D02*
D03*
X200558Y-151371D02*
D03*
X160558D02*
D03*
X500553D02*
D03*
X460553D02*
D03*
X331806Y73630D02*
D03*
X291806D02*
D03*
X575558Y-151371D02*
D03*
X535558D02*
D03*
X838058Y-76373D02*
D03*
X798058D02*
D03*
X725553Y-151371D02*
D03*
X685553D02*
D03*
X275558D02*
D03*
X235559D02*
D03*
X-43194Y73630D02*
D03*
X-83195D02*
D03*
X819306Y-1370D02*
D03*
X779306D02*
D03*
X-33819Y-226370D02*
D03*
X-73819D02*
D03*
X153681D02*
D03*
X113681D02*
D03*
X856806Y73630D02*
D03*
X816806D02*
D03*
X425558Y-151371D02*
D03*
X385558D02*
D03*
X763058Y-76373D02*
D03*
X723058D02*
D03*
X613058D02*
D03*
X573058D02*
D03*
X256806Y73630D02*
D03*
X216806D02*
D03*
X181803D02*
D03*
X141803D02*
D03*
X538053Y-76373D02*
D03*
X498053D02*
D03*
X59928Y-226370D02*
D03*
X19928D02*
D03*
X294306Y-1370D02*
D03*
X254306D02*
D03*
X69303D02*
D03*
X29303D02*
D03*
X744303D02*
D03*
X704303D02*
D03*
X669306D02*
D03*
X629306D02*
D03*
X894302D02*
D03*
X854303D02*
D03*
X650558Y-151371D02*
D03*
X610558D02*
D03*
X238053Y-76373D02*
D03*
X198053D02*
D03*
X350553Y-151371D02*
D03*
X310553D02*
D03*
X444306Y-1370D02*
D03*
X404306D02*
D03*
X106806Y73630D02*
D03*
X66806D02*
D03*
X688053Y-76373D02*
D03*
X648053D02*
D03*
X800558Y-151371D02*
D03*
X760558D02*
D03*
X997429Y-226370D02*
D03*
X957428D02*
D03*
D23*
X293054Y-76373D02*
D03*
X-44442Y-1370D02*
D03*
X68059Y-76373D02*
D03*
X414932Y-226370D02*
D03*
X-35067Y-76373D02*
D03*
X-16322Y-151371D02*
D03*
X11806Y73630D02*
D03*
X921178Y-151371D02*
D03*
X939925Y-76373D02*
D03*
X949302Y73630D02*
D03*
X143050Y-76373D02*
D03*
X883678Y-226370D02*
D03*
X499302Y-1370D02*
D03*
X686802Y73630D02*
D03*
X968052Y-1370D02*
D03*
X611806Y73630D02*
D03*
X386806D02*
D03*
X574306Y-1370D02*
D03*
X349303D02*
D03*
X536802Y73630D02*
D03*
X105559Y-151371D02*
D03*
X443052Y-76373D02*
D03*
X199306Y-1370D02*
D03*
X124306D02*
D03*
X761806Y73630D02*
D03*
X368052Y-76373D02*
D03*
X461806Y73630D02*
D03*
X789932Y-226370D02*
D03*
X696178D02*
D03*
X180559Y-151371D02*
D03*
X480552D02*
D03*
X311806Y73630D02*
D03*
X555558Y-151371D02*
D03*
X818058Y-76373D02*
D03*
X705552Y-151371D02*
D03*
X255558D02*
D03*
X-63195Y73630D02*
D03*
X799306Y-1370D02*
D03*
X-53819Y-226370D02*
D03*
X133681D02*
D03*
X836806Y73630D02*
D03*
X405558Y-151371D02*
D03*
X743058Y-76373D02*
D03*
X593058D02*
D03*
X236806Y73630D02*
D03*
X161803D02*
D03*
X518052Y-76373D02*
D03*
X39928Y-226370D02*
D03*
X274306Y-1370D02*
D03*
X49303D02*
D03*
X724302D02*
D03*
X649306D02*
D03*
X874302D02*
D03*
X630558Y-151371D02*
D03*
X218053Y-76373D02*
D03*
X330553Y-151371D02*
D03*
X424306Y-1370D02*
D03*
X86806Y73630D02*
D03*
X668052Y-76373D02*
D03*
X780558Y-151371D02*
D03*
X977429Y-226370D02*
D03*
D24*
X0Y0D02*
D03*
X-86173Y-112593D02*
D03*
X405554Y-76379D02*
D03*
X650781Y-225587D02*
D03*
X1009789Y-112590D02*
D03*
X924604Y0D02*
D03*
D25*
X67500Y51562D02*
D03*
X57500D02*
D03*
X47500D02*
D03*
X37500D02*
D03*
X27500D02*
D03*
X17500D02*
D03*
X7500D02*
D03*
D26*
X611783Y-253870D02*
D03*
X218082D02*
D03*
X30678Y-123871D02*
D03*
X-63322D02*
D03*
X874178D02*
D03*
X968178D02*
D03*
X892924Y-48873D02*
D03*
X986924D02*
D03*
X902302Y101130D02*
D03*
X996303D02*
D03*
D27*
X611783Y-193870D02*
D03*
X218082D02*
D03*
X30678Y-183870D02*
D03*
X-63322D02*
D03*
X874178D02*
D03*
X968178D02*
D03*
X892924Y-108873D02*
D03*
X986924D02*
D03*
X902302Y41130D02*
D03*
X996303D02*
D03*
D29*
X-18444Y-41006D02*
D03*
X-16217Y-38778D02*
D03*
X-13990Y-36551D02*
D03*
X-11763Y-34324D02*
D03*
X-9536Y-32097D02*
D03*
X-7309Y-29870D02*
D03*
X-5081Y-27643D02*
D03*
X-2854Y-25416D02*
D03*
X-627Y-23189D02*
D03*
X1600Y-20962D02*
D03*
X3827Y-18734D02*
D03*
X35842Y-50749D02*
D03*
X33615Y-52976D02*
D03*
X31387Y-55203D02*
D03*
X29160Y-57430D02*
D03*
X26933Y-59658D02*
D03*
X24706Y-61885D02*
D03*
X22479Y-64112D02*
D03*
X20252Y-66339D02*
D03*
X18025Y-68566D02*
D03*
X15798Y-70793D02*
D03*
X13571Y-73020D02*
D03*
D30*
Y-18734D02*
D03*
X15798Y-20962D02*
D03*
X18025Y-23189D02*
D03*
X20252Y-25416D02*
D03*
X22479Y-27643D02*
D03*
X24706Y-29870D02*
D03*
X26933Y-32097D02*
D03*
X29160Y-34324D02*
D03*
X31387Y-36551D02*
D03*
X33615Y-38778D02*
D03*
X35842Y-41006D02*
D03*
X3827Y-73020D02*
D03*
X1600Y-70793D02*
D03*
X-627Y-68566D02*
D03*
X-2854Y-66339D02*
D03*
X-5081Y-64112D02*
D03*
X-7309Y-61885D02*
D03*
X-9536Y-59658D02*
D03*
X-11763Y-57430D02*
D03*
X-13990Y-55203D02*
D03*
X-16217Y-52976D02*
D03*
X-18444Y-50749D02*
D03*
D31*
X-9589Y-21445D02*
D03*
Y-13945D02*
D03*
X-25081Y-38599D02*
D03*
Y-46099D02*
D03*
X-28960Y80054D02*
D03*
Y72553D02*
D03*
X-35634Y80120D02*
D03*
Y72620D02*
D03*
X91542Y-20691D02*
D03*
Y-13191D02*
D03*
Y-1191D02*
D03*
Y-8691D02*
D03*
D32*
X4863Y-86999D02*
D03*
X12363D02*
D03*
X4863Y-79999D02*
D03*
X12363D02*
D03*
X39838Y-45948D02*
D03*
X47339D02*
D03*
X-22671Y-16970D02*
D03*
X-30171D02*
D03*
D33*
X56250Y-74176D02*
D03*
Y-85199D02*
D03*
X-75000Y75824D02*
D03*
Y64801D02*
D03*
X0D02*
D03*
Y75824D02*
D03*
X75000Y64801D02*
D03*
Y75824D02*
D03*
X150000Y64801D02*
D03*
Y75824D02*
D03*
X225000Y64801D02*
D03*
Y75824D02*
D03*
X300000Y64801D02*
D03*
Y75824D02*
D03*
X375000Y64801D02*
D03*
Y75824D02*
D03*
X450000Y64801D02*
D03*
Y75824D02*
D03*
X525000Y64801D02*
D03*
Y75824D02*
D03*
X600000Y64801D02*
D03*
Y75824D02*
D03*
X675000Y64801D02*
D03*
Y75824D02*
D03*
X750000Y64801D02*
D03*
Y75824D02*
D03*
X825000Y64801D02*
D03*
Y75824D02*
D03*
X937500Y64801D02*
D03*
Y75824D02*
D03*
X-46875Y24262D02*
D03*
Y13238D02*
D03*
X46875Y24262D02*
D03*
Y13238D02*
D03*
X112500Y-10199D02*
D03*
Y824D02*
D03*
X187500Y-10199D02*
D03*
Y824D02*
D03*
X262500Y-10199D02*
D03*
Y824D02*
D03*
X337500Y-10199D02*
D03*
Y824D02*
D03*
X412500Y-10199D02*
D03*
Y824D02*
D03*
X487500Y-10199D02*
D03*
Y824D02*
D03*
X562500Y-10199D02*
D03*
Y824D02*
D03*
X637500Y-10199D02*
D03*
Y824D02*
D03*
X712500Y-10199D02*
D03*
Y824D02*
D03*
X787500Y-10199D02*
D03*
Y824D02*
D03*
X862500Y-10199D02*
D03*
Y824D02*
D03*
X956250Y-10199D02*
D03*
Y824D02*
D03*
X-46875Y-85199D02*
D03*
Y-74176D02*
D03*
X131250Y-85199D02*
D03*
Y-74176D02*
D03*
X206250Y-85199D02*
D03*
Y-74176D02*
D03*
X281250Y-85199D02*
D03*
Y-74176D02*
D03*
X356250Y-85199D02*
D03*
Y-74176D02*
D03*
X431250Y-85199D02*
D03*
Y-74176D02*
D03*
X506250Y-85199D02*
D03*
Y-74176D02*
D03*
X581250Y-85199D02*
D03*
Y-74176D02*
D03*
X656250Y-85199D02*
D03*
Y-74176D02*
D03*
X731250Y-85199D02*
D03*
Y-74176D02*
D03*
X806250Y-85199D02*
D03*
Y-74176D02*
D03*
X928125Y-85199D02*
D03*
Y-74176D02*
D03*
X-28125Y-160199D02*
D03*
Y-149176D02*
D03*
X93750Y-160199D02*
D03*
Y-149176D02*
D03*
X168750Y-160199D02*
D03*
Y-149176D02*
D03*
X243750Y-160199D02*
D03*
Y-149176D02*
D03*
X318750Y-160199D02*
D03*
Y-149176D02*
D03*
X393750Y-160199D02*
D03*
Y-149176D02*
D03*
X468750Y-160199D02*
D03*
Y-149176D02*
D03*
X543750Y-160199D02*
D03*
Y-149176D02*
D03*
X618750Y-160199D02*
D03*
Y-149176D02*
D03*
X693750Y-160199D02*
D03*
Y-149176D02*
D03*
X768750Y-160199D02*
D03*
Y-149176D02*
D03*
X909375Y-160199D02*
D03*
Y-149176D02*
D03*
X-56250Y-196051D02*
D03*
Y-207074D02*
D03*
X37500Y-196051D02*
D03*
Y-207074D02*
D03*
X131250Y-196051D02*
D03*
Y-207074D02*
D03*
X412500Y-196051D02*
D03*
Y-207074D02*
D03*
X693750Y-196051D02*
D03*
Y-207074D02*
D03*
X787500Y-196051D02*
D03*
Y-207074D02*
D03*
X881250Y-196051D02*
D03*
Y-207074D02*
D03*
X975000Y-196051D02*
D03*
Y-207074D02*
D03*
D34*
X24032Y-17697D02*
D03*
X29335Y-12394D02*
D03*
X24579Y-7272D02*
D03*
X19276Y-12575D02*
D03*
D35*
X-26378Y94646D02*
D03*
X-28937D02*
D03*
X-31496D02*
D03*
X-34055D02*
D03*
X-36614D02*
D03*
D36*
X-21703Y94980D02*
D03*
X-41289D02*
D03*
D37*
X-25394Y105118D02*
D03*
D38*
X-36024D02*
D03*
D39*
X-18209D02*
D03*
X-44783D02*
D03*
D40*
X81542Y-2941D02*
D03*
Y-18941D02*
D03*
M02*
