G04*
G04 #@! TF.GenerationSoftware,Altium Limited,Altium Designer,21.7.2 (23)*
G04*
G04 Layer_Color=0*
%FSLAX25Y25*%
%MOIN*%
G70*
G04*
G04 #@! TF.SameCoordinates,8FBBE309-EC49-44CF-9814-742EC28C0B38*
G04*
G04*
G04 #@! TF.FilePolarity,Positive*
G04*
G01*
G75*
%ADD52C,0.00984*%
%ADD53C,0.00500*%
D52*
X-20249Y-43302D02*
G03*
X-20249Y-43302I-492J0D01*
G01*
X-36220Y88583D02*
G03*
X-36220Y88583I-492J0D01*
G01*
D53*
X69249Y43562D02*
Y41563D01*
X68749Y40563D02*
X65750D01*
Y39064D01*
X66250Y38564D01*
X67250D01*
X67750Y39064D01*
Y40563D01*
Y39564D02*
X68749Y38564D01*
X66250Y35565D02*
X65750Y36065D01*
Y37065D01*
X66250Y37564D01*
X66750D01*
X67250Y37065D01*
Y36065D01*
X67750Y35565D01*
X68250D01*
X68749Y36065D01*
Y37065D01*
X68250Y37564D01*
X65750Y34565D02*
Y32566D01*
Y33566D01*
X68749D01*
X6001Y43562D02*
X8000D01*
X8999Y42563D01*
X8000Y41563D01*
X6001D01*
X6500Y38564D02*
X6001Y39064D01*
Y40064D01*
X6500Y40563D01*
X8500D01*
X8999Y40064D01*
Y39064D01*
X8500Y38564D01*
X6500Y35565D02*
X6001Y36065D01*
Y37065D01*
X6500Y37564D01*
X8500D01*
X8999Y37065D01*
Y36065D01*
X8500Y35565D01*
X16500Y41563D02*
X16000Y42063D01*
Y43063D01*
X16500Y43562D01*
X18499D01*
X18999Y43063D01*
Y42063D01*
X18499Y41563D01*
X17500D01*
Y42563D01*
X18999Y40563D02*
X16000D01*
X18999Y38564D01*
X16000D01*
Y37564D02*
X18999D01*
Y36065D01*
X18499Y35565D01*
X16500D01*
X16000Y36065D01*
Y37564D01*
X26500Y41563D02*
X26000Y42063D01*
Y43063D01*
X26500Y43562D01*
X27000D01*
X27500Y43063D01*
Y42063D01*
X28000Y41563D01*
X28499D01*
X28999Y42063D01*
Y43063D01*
X28499Y43562D01*
X26500Y38564D02*
X26000Y39064D01*
Y40064D01*
X26500Y40563D01*
X27000D01*
X27500Y40064D01*
Y39064D01*
X28000Y38564D01*
X28499D01*
X28999Y39064D01*
Y40064D01*
X28499Y40563D01*
X36500Y41563D02*
X36000Y42063D01*
Y43063D01*
X36500Y43562D01*
X37000D01*
X37500Y43063D01*
Y42063D01*
X38000Y41563D01*
X38500D01*
X38999Y42063D01*
Y43063D01*
X38500Y43562D01*
X36500Y38564D02*
X36000Y39064D01*
Y40064D01*
X36500Y40563D01*
X38500D01*
X38999Y40064D01*
Y39064D01*
X38500Y38564D01*
X36000Y37564D02*
X38999D01*
Y35565D01*
X36000Y34565D02*
X38999D01*
X38000D01*
X36000Y32566D01*
X37500Y34066D01*
X38999Y32566D01*
X58999Y43562D02*
X56000D01*
X57000Y42563D01*
X56000Y41563D01*
X58999D01*
X56000Y40563D02*
Y39564D01*
Y40064D01*
X58999D01*
Y40563D01*
Y39564D01*
X56500Y36065D02*
X56000Y36565D01*
Y37564D01*
X56500Y38064D01*
X57000D01*
X57500Y37564D01*
Y36565D01*
X58000Y36065D01*
X58499D01*
X58999Y36565D01*
Y37564D01*
X58499Y38064D01*
X56000Y33566D02*
Y34565D01*
X56500Y35065D01*
X58499D01*
X58999Y34565D01*
Y33566D01*
X58499Y33066D01*
X56500D01*
X56000Y33566D01*
X48999Y43562D02*
X46000D01*
X47000Y42563D01*
X46000Y41563D01*
X48999D01*
X46000Y39064D02*
Y40064D01*
X46500Y40563D01*
X48500D01*
X48999Y40064D01*
Y39064D01*
X48500Y38564D01*
X46500D01*
X46000Y39064D01*
X46500Y35565D02*
X46000Y36065D01*
Y37065D01*
X46500Y37564D01*
X47000D01*
X47500Y37065D01*
Y36065D01*
X48000Y35565D01*
X48500D01*
X48999Y36065D01*
Y37065D01*
X48500Y37564D01*
X46000Y34565D02*
Y33566D01*
Y34066D01*
X48999D01*
Y34565D01*
Y33566D01*
M02*
